<svg width="210" height="99" viewBox="0 0 210 99" fill="none" xmlns="http://www.w3.org/2000/svg">
<path d="M19.136 75.2H29.288V77.264H21.536V82.616H28.736V84.68H21.536V92H19.136V75.2ZM32.7063 75.368C33.0423 75.304 33.4103 75.248 33.8103 75.2C34.2263 75.152 34.6423 75.112 35.0583 75.08C35.4743 75.048 35.8903 75.024 36.3063 75.008C36.7223 74.992 37.1143 74.984 37.4823 74.984C38.2823 74.984 39.0503 75.064 39.7863 75.224C40.5383 75.384 41.1943 75.648 41.7543 76.016C42.3303 76.384 42.7863 76.864 43.1223 77.456C43.4743 78.048 43.6503 78.776 43.6503 79.64C43.6503 80.312 43.5463 80.92 43.3383 81.464C43.1303 82.008 42.8423 82.488 42.4743 82.904C42.1063 83.32 41.6663 83.672 41.1543 83.96C40.6583 84.232 40.1143 84.44 39.5223 84.584L40.7703 85.424L45.2823 92H42.5223L37.5303 84.92L35.1063 84.584V92H32.7063V75.368ZM37.5543 77.048C37.3303 77.048 37.0983 77.048 36.8583 77.048C36.6343 77.048 36.4103 77.056 36.1863 77.072C35.9623 77.088 35.7543 77.104 35.5623 77.12C35.3703 77.136 35.2183 77.16 35.1063 77.192V83H37.0743C37.6503 83 38.1783 82.944 38.6583 82.832C39.1543 82.704 39.5783 82.52 39.9303 82.28C40.2983 82.024 40.5863 81.696 40.7943 81.296C41.0023 80.896 41.1063 80.408 41.1063 79.832C41.1063 78.968 40.8023 78.288 40.1943 77.792C39.5863 77.296 38.7063 77.048 37.5543 77.048ZM46.7983 83.6C46.7983 82.224 46.9663 81 47.3023 79.928C47.6543 78.84 48.1503 77.928 48.7903 77.192C49.4463 76.44 50.2383 75.872 51.1663 75.488C52.1103 75.088 53.1743 74.888 54.3583 74.888C55.6223 74.888 56.7263 75.104 57.6703 75.536C58.6303 75.952 59.4223 76.544 60.0463 77.312C60.6863 78.064 61.1583 78.976 61.4623 80.048C61.7823 81.12 61.9423 82.304 61.9423 83.6C61.9423 84.976 61.7663 86.208 61.4143 87.296C61.0783 88.368 60.5823 89.28 59.9263 90.032C59.2703 90.768 58.4703 91.336 57.5262 91.736C56.5983 92.12 55.5423 92.312 54.3583 92.312C53.0783 92.312 51.9663 92.104 51.0223 91.688C50.0783 91.256 49.2943 90.664 48.6703 89.912C48.0463 89.144 47.5743 88.224 47.2543 87.152C46.9503 86.08 46.7983 84.896 46.7983 83.6ZM49.3423 83.6C49.3423 84.512 49.4383 85.368 49.6303 86.168C49.8383 86.968 50.1423 87.672 50.5423 88.28C50.9583 88.888 51.4783 89.368 52.1023 89.72C52.7423 90.072 53.4943 90.248 54.3583 90.248C55.9103 90.248 57.1343 89.712 58.0303 88.64C58.9423 87.568 59.3983 85.888 59.3983 83.6C59.3983 82.704 59.2943 81.856 59.0863 81.056C58.8943 80.256 58.5903 79.552 58.1743 78.944C57.7743 78.336 57.2543 77.856 56.6143 77.504C55.9903 77.136 55.2383 76.952 54.3583 76.952C52.8223 76.952 51.5983 77.496 50.6863 78.584C49.7903 79.672 49.3423 81.344 49.3423 83.6ZM63.686 89.888L72.734 78.272L73.91 77.312H63.686V75.2H76.118V77.312L66.998 89L65.87 89.888H76.118V92H63.686V89.888ZM79.1829 75.2H89.3349V77.264H81.5829V82.376H88.6629V84.44H81.5829V89.936H89.4549V92H79.1829V75.2ZM96.7259 81.32L95.2859 78.968H95.1899L95.4779 81.32V92H93.2219V74.96H94.5659L103.134 85.856L104.502 88.088H104.622L104.334 85.856V75.2H106.59V92.24H105.246L96.7259 81.32ZM117.855 75.2H128.007V77.264H120.255V82.616H127.455V84.68H120.255V92H117.855V75.2ZM130.681 83.6C130.681 82.224 130.849 81 131.185 79.928C131.537 78.84 132.033 77.928 132.673 77.192C133.329 76.44 134.121 75.872 135.049 75.488C135.993 75.088 137.057 74.888 138.241 74.888C139.505 74.888 140.609 75.104 141.553 75.536C142.513 75.952 143.305 76.544 143.929 77.312C144.569 78.064 145.041 78.976 145.345 80.048C145.665 81.12 145.825 82.304 145.825 83.6C145.825 84.976 145.649 86.208 145.297 87.296C144.961 88.368 144.465 89.28 143.809 90.032C143.153 90.768 142.353 91.336 141.409 91.736C140.481 92.12 139.425 92.312 138.241 92.312C136.961 92.312 135.849 92.104 134.905 91.688C133.961 91.256 133.177 90.664 132.553 89.912C131.929 89.144 131.457 88.224 131.137 87.152C130.833 86.08 130.681 84.896 130.681 83.6ZM133.225 83.6C133.225 84.512 133.321 85.368 133.513 86.168C133.721 86.968 134.025 87.672 134.425 88.28C134.841 88.888 135.361 89.368 135.985 89.72C136.625 90.072 137.377 90.248 138.241 90.248C139.793 90.248 141.017 89.712 141.913 88.64C142.825 87.568 143.281 85.888 143.281 83.6C143.281 82.704 143.177 81.856 142.969 81.056C142.777 80.256 142.473 79.552 142.057 78.944C141.657 78.336 141.137 77.856 140.497 77.504C139.873 77.136 139.121 76.952 138.241 76.952C136.705 76.952 135.481 77.496 134.569 78.584C133.673 79.672 133.225 81.344 133.225 83.6ZM148.611 83.6C148.611 82.224 148.779 81 149.115 79.928C149.467 78.84 149.963 77.928 150.603 77.192C151.259 76.44 152.051 75.872 152.979 75.488C153.923 75.088 154.987 74.888 156.171 74.888C157.435 74.888 158.539 75.104 159.483 75.536C160.443 75.952 161.235 76.544 161.859 77.312C162.499 78.064 162.971 78.976 163.275 80.048C163.595 81.12 163.755 82.304 163.755 83.6C163.755 84.976 163.579 86.208 163.227 87.296C162.891 88.368 162.395 89.28 161.739 90.032C161.083 90.768 160.283 91.336 159.339 91.736C158.411 92.12 157.355 92.312 156.171 92.312C154.891 92.312 153.779 92.104 152.835 91.688C151.891 91.256 151.107 90.664 150.483 89.912C149.859 89.144 149.387 88.224 149.067 87.152C148.763 86.08 148.611 84.896 148.611 83.6ZM151.155 83.6C151.155 84.512 151.251 85.368 151.443 86.168C151.651 86.968 151.955 87.672 152.355 88.28C152.771 88.888 153.291 89.368 153.915 89.72C154.555 90.072 155.307 90.248 156.171 90.248C157.723 90.248 158.947 89.712 159.843 88.64C160.755 87.568 161.211 85.888 161.211 83.6C161.211 82.704 161.107 81.856 160.899 81.056C160.707 80.256 160.403 79.552 159.987 78.944C159.587 78.336 159.067 77.856 158.427 77.504C157.803 77.136 157.051 76.952 156.171 76.952C154.635 76.952 153.411 77.496 152.499 78.584C151.603 79.672 151.155 81.344 151.155 83.6ZM167.284 75.2C167.604 75.152 167.972 75.12 168.388 75.104C168.82 75.072 169.26 75.048 169.708 75.032C170.172 75.016 170.62 75.008 171.052 75.008C171.5 74.992 171.908 74.984 172.276 74.984C173.748 74.984 175.02 75.2 176.092 75.632C177.18 76.048 178.076 76.632 178.78 77.384C179.5 78.136 180.036 79.032 180.388 80.072C180.74 81.112 180.916 82.248 180.916 83.48C180.916 84.6 180.748 85.688 180.412 86.744C180.092 87.784 179.572 88.712 178.852 89.528C178.132 90.344 177.204 91 176.068 91.496C174.948 91.992 173.588 92.24 171.988 92.24C171.716 92.24 171.348 92.232 170.884 92.216C170.436 92.2 169.972 92.184 169.492 92.168C169.012 92.152 168.564 92.128 168.148 92.096C167.748 92.08 167.46 92.056 167.284 92.024V75.2ZM172.348 77.096C172.124 77.096 171.884 77.096 171.628 77.096C171.372 77.096 171.116 77.104 170.86 77.12C170.604 77.136 170.372 77.152 170.164 77.168C169.956 77.184 169.796 77.2 169.684 77.216V90.032C169.764 90.048 169.916 90.064 170.14 90.08C170.38 90.08 170.628 90.088 170.884 90.104C171.14 90.104 171.38 90.112 171.604 90.128C171.828 90.128 171.988 90.128 172.084 90.128C173.284 90.128 174.284 89.944 175.084 89.576C175.9 89.192 176.548 88.688 177.028 88.064C177.524 87.44 177.868 86.736 178.06 85.952C178.268 85.152 178.372 84.328 178.372 83.48C178.372 82.76 178.276 82.024 178.084 81.272C177.892 80.52 177.564 79.84 177.1 79.232C176.636 78.608 176.02 78.096 175.252 77.696C174.484 77.296 173.516 77.096 172.348 77.096Z" fill="black"/>
<path d="M2.688 36.96C2.688 34.2293 3.15733 31.52 4.096 28.832C5.07733 26.144 6.48533 23.712 8.32 21.536C10.1547 19.3173 12.416 17.568 15.104 16.288C17.792 14.9653 20.8427 14.304 24.256 14.304C28.2667 14.304 31.7227 15.2427 34.624 17.12C37.5253 18.9547 39.6587 21.3227 41.024 24.224L37.504 26.4C36.5227 24.3947 35.2853 22.816 33.792 21.664C32.2987 20.4693 30.6987 19.616 28.992 19.104C27.328 18.592 25.664 18.336 24 18.336C21.2693 18.336 18.8587 18.8907 16.768 20C14.6773 21.0667 12.9067 22.5173 11.456 24.352C10.048 26.1867 8.98133 28.2133 8.256 30.432C7.53067 32.6507 7.168 34.912 7.168 37.216C7.168 39.7333 7.59467 42.144 8.448 44.448C9.30133 46.7093 10.496 48.736 12.032 50.528C13.568 52.32 15.36 53.7493 17.408 54.816C19.4987 55.84 21.76 56.352 24.192 56.352C25.8987 56.352 27.648 56.0533 29.44 55.456C31.232 54.8587 32.896 53.9413 34.432 52.704C35.968 51.4667 37.2267 49.8667 38.208 47.904L41.92 49.824C40.9387 52.0853 39.4667 54.0053 37.504 55.584C35.584 57.1627 33.408 58.3573 30.976 59.168C28.5867 59.9787 26.24 60.384 23.936 60.384C20.8213 60.384 17.9627 59.7227 15.36 58.4C12.7573 57.0347 10.496 55.2427 8.576 53.024C6.69867 50.7627 5.248 48.2453 4.224 45.472C3.2 42.656 2.688 39.8187 2.688 36.96ZM49.571 60V14.56H54.051V56.032H80.291V60H49.571ZM100.964 14.56H104.74L123.62 60H118.884L112.996 45.792H92.5795L86.7555 60H81.9555L100.964 14.56ZM111.972 42.272L102.82 19.808L93.5395 42.272H111.972ZM130.134 60V14.56H149.334C151.296 14.56 153.088 14.9653 154.71 15.776C156.374 16.5867 157.803 17.696 158.998 19.104C160.192 20.4693 161.11 22.0053 161.75 23.712C162.432 25.376 162.774 27.0827 162.774 28.832C162.774 31.0507 162.347 33.12 161.494 35.04C160.683 36.96 159.51 38.5813 157.974 39.904C156.438 41.2267 154.667 42.08 152.662 42.464L163.798 60H158.742L148.054 43.232H134.614V60H130.134ZM134.614 39.264H149.462C151.254 39.264 152.811 38.7733 154.134 37.792C155.456 36.768 156.48 35.4667 157.206 33.888C157.931 32.3093 158.294 30.624 158.294 28.832C158.294 26.9973 157.867 25.312 157.014 23.776C156.203 22.1973 155.094 20.9387 153.686 20C152.278 19.0187 150.742 18.528 149.078 18.528H134.614V39.264ZM185.839 14.56H189.615L208.495 60H203.759L197.871 45.792H177.455L171.631 60H166.831L185.839 14.56ZM196.847 42.272L187.695 19.808L178.415 42.272H196.847Z" fill="#F0AD00"/>
</svg>
